HIERARCHY
ROOT root
{
	OFFSET	0	13.1	24.9
	CHANNELS 6  Xposition Yposition Zposition Xrotation Yrotation Zrotation
	JOINT spine_1
	{
		OFFSET	0	9.99999	0
		CHANNELS 3  Xrotation Yrotation Zrotation
		JOINT spine_2
		{
			OFFSET	0	112	-10
			CHANNELS 3  Xrotation Yrotation Zrotation
			JOINT spine_3
			{
				OFFSET	0	206.5	19.3
				CHANNELS 3  Xrotation Yrotation Zrotation
				JOINT spine_4
				{
					OFFSET	0	110.4	14.6
					CHANNELS 3  Xrotation Yrotation Zrotation
					JOINT neck_1
					{
						OFFSET	0	71.8	-50.3
						CHANNELS 3  Xrotation Yrotation Zrotation
						JOINT neck_2
						{
							OFFSET	0	86.2	-25.8
							CHANNELS 3  Xrotation Yrotation Zrotation
							JOINT head_ee
							{
								OFFSET	0	179.8	-8.7
								CHANNELS 3  Xrotation Yrotation Zrotation
								End Site
								{
									OFFSET	1	0	0
								}
							}
						}
					}
					JOINT left_clavicle
					{
						OFFSET	-43.2	22.4	-70.8
						CHANNELS 3  Xrotation Yrotation Zrotation
						JOINT left_shoulder
						{
							OFFSET	-93.9	-5.79999	48.7
							CHANNELS 3  Xrotation Yrotation Zrotation
							JOINT left_elbow
							{
								OFFSET	-291.4	-30.8	15.2
								CHANNELS 3  Xrotation Yrotation Zrotation
								JOINT left_lowarm_twist
								{
									OFFSET	-110.7	-3.89999	13.6
									CHANNELS 3  Xrotation Yrotation Zrotation
									JOINT left_hand
									{
										OFFSET	-110.7	-3.89999	13.6
										CHANNELS 3  Xrotation Yrotation Zrotation
										JOINT left_ee
										{
											OFFSET	-80.8	-5.10001	12.1
											CHANNELS 3  Xrotation Yrotation Zrotation
											End Site
											{
												OFFSET	1	0	0
											}
										}
									}
								}
							}
						}
					}
					JOINT right_clavicle
					{
						OFFSET	43.2	22.4	-70.8
						CHANNELS 3  Xrotation Yrotation Zrotation
						JOINT right_shoulder
						{
							OFFSET	93.9	-5.79999	48.7
							CHANNELS 3  Xrotation Yrotation Zrotation
							JOINT right_elbow
							{
								OFFSET	291.4	-30.8	15.2
								CHANNELS 3  Xrotation Yrotation Zrotation
								JOINT right_lowarm_twist
								{
									OFFSET	110.7	-3.89999	13.6
									CHANNELS 3  Xrotation Yrotation Zrotation
									JOINT right_hand
									{
										OFFSET	110.7	-3.89999	13.6
										CHANNELS 3  Xrotation Yrotation Zrotation
										JOINT right_ee
										{
											OFFSET	80.8	-5.10001	12.1
											CHANNELS 3  Xrotation Yrotation Zrotation
											End Site
											{
												OFFSET	1	0	0
											}
										}
									}
								}
							}
						}
					}
				}
			}
		}
	}
	JOINT left_hip
	{
		OFFSET	-82.8	-127.5	0.300001
		CHANNELS 3  Xrotation Yrotation Zrotation
		JOINT left_knee
		{
			OFFSET	-28.2	-396.7	2.2
			CHANNELS 3  Xrotation Yrotation Zrotation
			JOINT left_ankle
			{
				OFFSET	-11.7	-411.3	35.4
				CHANNELS 3  Xrotation Yrotation Zrotation
				JOINT left_toes
				{
					OFFSET	0	-60	-88.6
					CHANNELS 3  Xrotation Yrotation Zrotation
					JOINT left_foot_ee
					{
						OFFSET	-22.5	-16.5	-42.2
						CHANNELS 3  Xrotation Yrotation Zrotation
						End Site
						{
							OFFSET	1	0	0
						}
					}
				}
			}
		}
	}
	JOINT right_hip
	{
		OFFSET	82.8	-127.5	0.300001
		CHANNELS 3  Xrotation Yrotation Zrotation
		JOINT right_knee
		{
			OFFSET	28.2	-396.7	2.2
			CHANNELS 3  Xrotation Yrotation Zrotation
			JOINT right_ankle
			{
				OFFSET	11.7	-411.3	35.4
				CHANNELS 3  Xrotation Yrotation Zrotation
				JOINT right_toes
				{
					OFFSET	0	-60	-88.6
					CHANNELS 3  Xrotation Yrotation Zrotation
					JOINT right_foot_ee
					{
						OFFSET	22.5	-16.5	-42.2
						CHANNELS 3  Xrotation Yrotation Zrotation
						End Site
						{
							OFFSET	1	0	0
						}
					}
				}
			}
		}
	}
}
MOTION
Frames: 9
Frame Time: 0.02
1372.05 701.618 -1475.22 2.55294334578 64.6105023495 -1.95021787967 -1.49944 -0.39354 -0.999887 -1.49895 -0.329121 -1.0229 -1.49241 -0.0789255 -1.07164 -1.49393 -0.247171 -1.04573 -23.8852 10.0966 13.0481 -23.7403 13.7899 16.9212 -0.0 0.0 -0.0 1.51534 11.084 3.88384 11.1783 -20.2009 63.7042 3.67955 -61.2338 2.17803 -3.50584 -0.136641 0.42671 0.105883 4.69994 2.6636 -0.0 0.0 -0.0 7.53966 20.0794 -13.952 -34.8689 33.241 -58.0206 0.271458 7.65894 -0.0181706 16.6629 -0.283203 2.10222 3.72295 -1.16081 -26.2277 0.0 0.0 0.0 -18.2282 20.445 10.6072 -16.4192 0.321087 2.49063 28.1882 15.3504 -3.73727 -14.5393 0.0 0.0 -0.0 0.0 -0.0 41.839 41.4788 -19.2769 -6.80849 -0.219858 -1.02116 -19.6474 2.49261 -3.01067 -25.0955 0.0 0.0 0.0 0.0 0.0 
1331.06022586 698.693 -1485.43820512 6.7427984576 68.0200069807 -5.93684600321 -1.81875 -0.394697 -1.32288 -1.81783 -0.309726 -1.34531 -1.8094 0.0235132 -1.3803 -1.81201 -0.194754 -1.3667 -21.5838 10.8345 12.2877 -21.4994 15.0495 16.149 -0.0 0.0 -0.0 1.43621 10.2803 3.68243 8.21141 -21.146 65.2132 3.46049 -59.7282 1.98739 -5.07552 -0.206243 0.614932 0.344594 2.72872 3.42994 -0.0 0.0 -0.0 8.41023 22.7812 -15.6415 -33.2668 33.6143 -57.5912 0.376306 10.5596 -0.034775 16.2155 -0.283638 2.04507 3.91259 -1.31109 -27.7124 0.0 0.0 0.0 -18.457 17.644 8.95408 -21.4455 0.275661 3.26025 22.2328 13.2407 -3.02192 -14.4345 0.0 0.0 -0.0 0.0 -0.0 41.2443 41.628 -19.8896 -13.1595 -0.31441 -1.9906 -21.1612 4.67732 -3.27088 -23.9699 0.0 0.0 0.0 0.0 0.0 
1331.16877701 698.693 -1485.86419592 6.57403129183 67.4277909504 -5.75447001115 -1.81875 -0.394697 -1.32288 -1.81783 -0.309726 -1.34531 -1.8094 0.0235132 -1.3803 -1.81201 -0.194754 -1.3667 -21.5838 10.8345 12.2877 -21.4994 15.0495 16.149 -0.0 0.0 -0.0 1.43621 10.2803 3.68243 8.21141 -21.146 65.2132 3.46049 -59.7282 1.98739 -5.07552 -0.206243 0.614932 0.344594 2.72872 3.42994 -0.0 0.0 -0.0 8.41023 22.7812 -15.6415 -33.2668 33.6143 -57.5912 0.376306 10.5596 -0.034775 16.2155 -0.283638 2.04507 3.91259 -1.31109 -27.7124 0.0 0.0 0.0 -18.457 17.644 8.95408 -21.4455 0.275661 3.26025 22.2328 13.2407 -3.02192 -14.4345 0.0 0.0 -0.0 0.0 -0.0 41.2443 41.628 -19.8896 -13.1595 -0.31441 -1.9906 -21.1612 4.67732 -3.27088 -23.9699 0.0 0.0 0.0 0.0 0.0 
1310.94504449 699.022 -1485.06581312 7.41676447654 68.1579278305 -6.66835841412 -1.9345 -0.381842 -1.43711 -1.9334 -0.289632 -1.45848 -1.92467 0.0732806 -1.48515 -1.92771 -0.162165 -1.47809 -20.9466 10.8199 11.9174 -20.8721 15.0576 15.69 -0.0 0.0 -0.0 1.66869 7.17257 3.83214 6.49795 -22.7104 65.8861 2.89448 -55.0963 1.5101 -4.97898 -0.201814 0.60341 0.383051 2.94951 3.77568 -0.0 0.0 -0.0 8.34299 24.0228 -15.3785 -32.7132 33.6551 -57.278 0.376752 10.5718 -0.034857 15.9888 -0.283689 2.01611 4.02008 -1.12599 -28.4546 0.0 0.0 0.0 -18.1469 16.889 8.09162 -22.94 0.24915 3.48805 20.0862 11.6949 -2.75013 -14.2395 0.0 0.0 -0.0 0.0 -0.0 40.9437 41.6518 -19.9079 -15.0009 -0.321678 -2.27302 -22.0835 5.45556 -3.42512 -23.1719 0.0 0.0 0.0 0.0 0.0 
1259.17166751 707.455 -1494.30754575 7.1587046806 69.5962417179 -5.63583295819 -2.01899 -0.135401 -1.37208 -2.01795 -0.0478263 -1.37792 -2.01576 0.290484 -1.3478 -2.01828 0.0739994 -1.37676 -17.7868 11.8244 10.0091 -17.8416 17.3076 13.8072 -0.0 0.0 -0.0 1.93482 4.15423 4.07113 2.22755 -22.1824 67.7727 2.22384 -47.762 0.984687 -8.87185 -0.395722 1.06182 0.398179 2.05293 3.50816 -0.0 0.0 -0.0 8.97096 27.9993 -16.3524 -28.7404 33.4585 -57.8994 0.379764 10.6544 -0.0354116 13.8942 -0.278732 1.74864 3.91544 -3.96161 -28.7604 0.0 0.0 0.0 -15.461 15.8691 4.57956 -26.4303 0.164159 4.01684 13.568 9.96306 -1.90512 -15.7819 0.0 0.0 -0.0 0.0 -0.0 40.2756 40.6068 -21.0686 -18.7945 -0.308036 -2.85481 -20.2176 8.64733 -3.18452 -23.0101 0.0 0.0 0.0 0.0 0.0 
1259.46569333 707.455 -1495.97153584 6.88683336362 68.7568750569 -5.34496992585 -2.01899 -0.135401 -1.37208 -2.01795 -0.0478263 -1.37792 -2.01576 0.290484 -1.3478 -2.01828 0.0739994 -1.37676 -17.7868 11.8244 10.0091 -17.8416 17.3076 13.8072 -0.0 0.0 -0.0 1.93482 4.15423 4.07113 2.22755 -22.1824 67.7727 2.22384 -47.762 0.984687 -8.87185 -0.395722 1.06182 0.398179 2.05293 3.50816 -0.0 0.0 -0.0 8.97096 27.9993 -16.3524 -28.7404 33.4585 -57.8994 0.379764 10.6544 -0.0354116 13.8942 -0.278732 1.74864 3.91544 -3.96161 -28.7604 0.0 0.0 0.0 -15.461 15.8691 4.57956 -26.4303 0.164159 4.01684 13.568 9.96306 -1.90512 -15.7819 0.0 0.0 -0.0 0.0 -0.0 40.2756 40.6068 -21.0686 -18.7945 -0.308036 -2.85481 -20.2176 8.64733 -3.18452 -23.0101 0.0 0.0 0.0 0.0 0.0 
1214.41958099 714.629 -1502.08414904 9.60871629132 67.9536362385 -7.80935553601 -2.42234 -0.0357487 -0.956907 -2.42183 0.0252114 -0.957242 -2.42175 0.264981 -0.920185 -2.42291 0.116336 -0.950482 -16.5554 14.3017 8.80021 -16.8649 22.5066 13.4317 -0.0 0.0 -0.0 1.90379 2.92933 3.9137 -1.77047 -20.0997 68.5903 1.67677 -39.7105 0.605539 -13.587 -0.671694 1.59807 0.541126 1.79386 4.35359 -0.0 0.0 -0.0 10.0677 25.3742 -19.0812 -28.9315 38.2626 -53.4206 0.256697 7.24702 -0.0162558 10.3366 -0.247927 1.29535 3.67147 -6.94153 -28.0025 0.0 0.0 0.0 -6.91695 16.4977 -2.17461 -45.5206 -0.854799 6.75316 11.3803 4.9496 -1.61172 -13.5974 0.0 0.0 -0.0 0.0 -0.0 35.0687 32.7416 -18.9461 -22.8481 -0.250952 -3.47405 -18.5555 11.1299 -2.96404 -21.1043 0.0 0.0 0.0 0.0 0.0 
1215.28962565 714.629 -1506.76705272 8.95656475376 66.2692217275 -7.10154481756 -2.42234 -0.0357487 -0.956907 -2.42183 0.0252114 -0.957242 -2.42175 0.264981 -0.920185 -2.42291 0.116336 -0.950482 -16.5554 14.3017 8.80021 -16.8649 22.5066 13.4317 -0.0 0.0 -0.0 1.90379 2.92933 3.9137 -1.77047 -20.0997 68.5903 1.67677 -39.7105 0.605539 -13.587 -0.671694 1.59807 0.541126 1.79386 4.35359 -0.0 0.0 -0.0 10.0677 25.3742 -19.0812 -28.9315 38.2626 -53.4206 0.256697 7.24702 -0.0162558 10.3366 -0.247927 1.29535 3.67147 -6.94153 -28.0025 0.0 0.0 0.0 -6.91695 16.4977 -2.17461 -45.5206 -0.854799 6.75316 11.3803 4.9496 -1.61172 -13.5974 0.0 0.0 -0.0 0.0 -0.0 35.0687 32.7416 -18.9461 -22.8481 -0.250952 -3.47405 -18.5555 11.1299 -2.96404 -21.1043 0.0 0.0 0.0 0.0 0.0 
1179.50826526 719.491 -1504.82575901 9.43517488978 67.9586032111 -8.22450566177 -2.40038 -0.0447281 -0.514647 -2.40023 -0.0118896 -0.51645 -2.39996 0.118087 -0.502909 -2.40032 0.0371813 -0.515247 -17.3671 15.126 9.10397 -17.7983 24.0918 14.2354 -0.0 0.0 -0.0 1.79875 5.33168 3.91636 -3.78671 -16.357 70.0877 1.3824 -34.4015 0.427964 -15.2731 -0.780994 1.78414 0.445312 3.54856 4.43311 -0.0 0.0 -0.0 10.7514 24.3675 -20.7198 -26.7724 41.9901 -48.8931 0.254332 7.18095 -0.0159588 8.23456 -0.21652 1.02869 3.61073 -8.94074 -28.2311 0.0 0.0 0.0 -0.533849 14.6589 -2.31161 -53.5107 -1.54147 7.77287 3.24902 1.71226 -0.474651 -12.3349 0.0 0.0 -0.0 0.0 -0.0 32.8966 33.3541 -18.9036 -23.9213 -0.228514 -3.63721 -16.503 11.1631 -2.63379 -20.2942 0.0 0.0 0.0 0.0 0.0 
